<svg width="16" height="16" viewBox="0 0 16 16" fill="none" xmlns="http://www.w3.org/2000/svg">
<g clip-path="url(#clip0)">
<path d="M13.3545 0.773697H7.84377C7.5838 0.773697 7.37305 0.984447 7.37305 1.24442V4.13051H13.8252V1.24442C13.8252 0.984447 13.6145 0.773697 13.3545 0.773697Z" fill="#E0E0E0"/>
<path d="M15.1213 5.07199H5.94336V13.9313H15.1213C15.6067 13.9313 16.0002 13.5378 16.0002 13.0524V5.95087C16.0002 5.46549 15.6067 5.07199 15.1213 5.07199ZM8.78846 12.8676H8.17958C7.91961 12.8676 7.70886 12.6569 7.70886 12.3969C7.70886 12.137 7.91961 11.9262 8.17958 11.9262H8.78846C9.04843 11.9262 9.25918 12.137 9.25918 12.3969C9.25918 12.6569 9.04843 12.8676 8.78846 12.8676ZM8.78846 11.4207H8.17958C7.91961 11.4207 7.70886 11.2099 7.70886 10.95C7.70886 10.69 7.91961 10.4792 8.17958 10.4792H8.78846C9.04843 10.4792 9.25918 10.69 9.25918 10.95C9.25918 11.2099 9.04843 11.4207 8.78846 11.4207ZM8.78846 9.97368H8.17958C7.91961 9.97368 7.70886 9.76293 7.70886 9.50296C7.70886 9.24299 7.91961 9.03224 8.17958 9.03224H8.78846C9.04843 9.03224 9.25918 9.24299 9.25918 9.50296C9.25918 9.76293 9.04843 9.97368 8.78846 9.97368ZM10.9038 12.8676H10.2949C10.0349 12.8676 9.82418 12.6569 9.82418 12.3969C9.82418 12.137 10.0349 11.9262 10.2949 11.9262H10.9038C11.1637 11.9262 11.3745 12.137 11.3745 12.3969C11.3745 12.6569 11.1637 12.8676 10.9038 12.8676ZM10.9038 11.4207H10.2949C10.0349 11.4207 9.82418 11.2099 9.82418 10.95C9.82418 10.69 10.0349 10.4792 10.2949 10.4792H10.9038C11.1637 10.4792 11.3745 10.69 11.3745 10.95C11.3745 11.2099 11.1637 11.4207 10.9038 11.4207ZM10.9038 9.97368H10.2949C10.0349 9.97368 9.82418 9.76293 9.82418 9.50296C9.82418 9.24299 10.0349 9.03224 10.2949 9.03224H10.9038C11.1637 9.03224 11.3745 9.24299 11.3745 9.50296C11.3745 9.76293 11.1637 9.97368 10.9038 9.97368ZM13.0191 12.8676H12.4102C12.1502 12.8676 11.9395 12.6569 11.9395 12.3969C11.9395 12.137 12.1502 11.9262 12.4102 11.9262H13.0191C13.2791 11.9262 13.4898 12.137 13.4898 12.3969C13.4898 12.6569 13.2791 12.8676 13.0191 12.8676ZM13.0191 11.4207H12.4102C12.1502 11.4207 11.9395 11.2099 11.9395 10.95C11.9395 10.69 12.1502 10.4792 12.4102 10.4792H13.0191C13.2791 10.4792 13.4898 10.69 13.4898 10.95C13.4898 11.2099 13.2791 11.4207 13.0191 11.4207ZM13.0191 9.97368H12.4102C12.1502 9.97368 11.9395 9.76293 11.9395 9.50296C11.9395 9.24299 12.1502 9.03224 12.4102 9.03224H13.0191C13.2791 9.03224 13.4898 9.24299 13.4898 9.50296C13.4898 9.76293 13.2791 9.97368 13.0191 9.97368ZM13.0191 7.64062H8.17958C7.91961 7.64062 7.70886 7.42987 7.70886 7.1699C7.70886 6.90993 7.91961 6.69918 8.17958 6.69918H13.0191C13.2791 6.69918 13.4898 6.90993 13.4898 7.1699C13.4898 7.42987 13.2791 7.64062 13.0191 7.64062Z" fill="#E0E0E0"/>
<path d="M4.53103 3.77693H2.29103C2.03147 3.77693 1.82031 3.98809 1.82031 4.24765V14.7556C1.82031 15.0152 2.03147 15.2263 2.29103 15.2263H4.531C4.79056 15.2263 5.00172 15.0152 5.00172 14.7556V4.24765H5.00175C5.00175 3.98809 4.79059 3.77693 4.53103 3.77693Z" fill="#E0E0E0"/>
<path d="M0 5.95087V13.0524C0 13.5378 0.3935 13.9313 0.878875 13.9313V5.07199C0.3935 5.07199 0 5.46549 0 5.95087Z" fill="#E0E0E0"/>
</g>
<defs>
<clipPath id="clip0">
<rect width="16" height="16" fill="white"/>
</clipPath>
</defs>
</svg>
