<svg width="98" height="98" viewBox="0 0 98 98" fill="none" xmlns="http://www.w3.org/2000/svg">
<g clip-path="url(#clip0)">
<path d="M49 45.9375C56.9283 45.9375 63.3555 39.5103 63.3555 31.582C63.3555 23.6537 56.9283 17.2266 49 17.2266C41.0717 17.2266 34.6445 23.6537 34.6445 31.582C34.6445 39.5103 41.0717 45.9375 49 45.9375Z" fill="#3A82E0"/>
<path d="M49 0C33.4754 0 17.418 11.8124 17.418 31.582C17.418 49.6414 45.5962 84.0427 46.7935 85.4838C47.3401 86.137 48.1477 86.5156 49 86.5156C49.8523 86.5156 50.6599 86.137 51.2065 85.4838C52.4038 84.0427 80.582 49.6414 80.582 31.582C80.582 14.1677 66.4143 0 49 0ZM49 51.6797C37.9193 51.6797 28.9023 42.6627 28.9023 31.582C28.9023 20.5013 37.9193 11.4844 49 11.4844C60.0807 11.4844 69.0977 20.5013 69.0977 31.582C69.0977 42.6627 60.0807 51.6797 49 51.6797Z" fill="#3A82E0"/>
<path d="M68.3487 72.3155C62.8128 80.3302 57.6374 86.7295 55.6227 89.1541C53.9683 91.1307 51.557 92.2579 49 92.2579C46.443 92.2579 44.0317 91.1307 42.3886 89.168C40.3691 86.7376 35.1902 80.3337 29.6517 72.3155C22.2194 74.942 17.418 79.0339 17.418 83.6446C17.418 91.5727 31.5579 98.0001 49 98.0001C66.4421 98.0001 80.582 91.5727 80.582 83.6446C80.582 79.034 75.7808 74.942 68.3487 72.3155Z" fill="#3A82E0"/>
</g>
<defs>
<clipPath id="clip0">
<rect width="98" height="98" fill="white"/>
</clipPath>
</defs>
</svg>
