<svg width="16" height="16" viewBox="0 0 16 16" fill="none" xmlns="http://www.w3.org/2000/svg">
<path d="M8 7.5C9.29442 7.5 10.3438 6.45067 10.3438 5.15625C10.3438 3.86183 9.29442 2.8125 8 2.8125C6.70558 2.8125 5.65625 3.86183 5.65625 5.15625C5.65625 6.45067 6.70558 7.5 8 7.5Z" fill="#E0E0E0"/>
<path d="M8 0C5.46537 0 2.84375 1.92856 2.84375 5.15625C2.84375 8.10472 7.44428 13.7213 7.63975 13.9565C7.729 14.0632 7.86084 14.125 8 14.125C8.13916 14.125 8.271 14.0632 8.36025 13.9565C8.55572 13.7213 13.1562 8.10472 13.1562 5.15625C13.1562 2.31309 10.8432 0 8 0ZM8 8.4375C6.19091 8.4375 4.71875 6.96534 4.71875 5.15625C4.71875 3.34716 6.19091 1.875 8 1.875C9.80909 1.875 11.2812 3.34716 11.2812 5.15625C11.2812 6.96534 9.80909 8.4375 8 8.4375Z" fill="#E0E0E0"/>
<path d="M11.159 11.8066C10.2552 13.1151 9.41019 14.1599 9.08125 14.5558C8.81116 14.8785 8.41747 15.0625 8 15.0625C7.58253 15.0625 7.18884 14.8785 6.92059 14.558C6.59087 14.1612 5.74534 13.1157 4.84109 11.8066C3.62766 12.2354 2.84375 12.9035 2.84375 13.6563C2.84375 14.9506 5.15231 16 8 16C10.8477 16 13.1562 14.9506 13.1562 13.6563C13.1562 12.9035 12.3724 12.2354 11.159 11.8066Z" fill="#E0E0E0"/>
</svg>
