<svg width="187" height="32" viewBox="0 0 187 32" fill="none" xmlns="http://www.w3.org/2000/svg">
<g clip-path="url(#clip0)">
<path d="M56.4683 20.4312V23.2005H45.5793V8.80499H56.257V11.5854H48.6966V14.4679H53.1098V12.9803L56.2944 15.8479L53.1098 18.7155V17.239H48.6966V20.4312H56.4683Z" fill="#1D1D1B"/>
<path d="M64.7487 17.9606L61.2257 23.2005H57.6932L62.774 15.6921L58.1084 8.80499H61.6408L64.7487 13.4421L67.8548 8.80499H71.3779L66.7122 15.6921L71.793 23.2005H68.27L64.7487 17.9606Z" fill="#1D1D1B"/>
<path d="M73.865 8.80499H79.978C81.474 8.80499 82.7101 9.26871 83.6862 10.1961C84.1631 10.6342 84.5409 11.1674 84.7949 11.7608C85.0489 12.3542 85.1733 12.9942 85.1598 13.6388C85.1735 14.2831 85.0499 14.923 84.7969 15.5166C84.5439 16.1102 84.1673 16.6441 83.6918 17.0832C82.7132 18.0094 81.4753 18.4725 79.978 18.4725H76.986V23.2005H73.865V8.80499ZM79.877 11.5873H76.9748V15.6921H79.8695C80.1549 15.7007 80.4391 15.6528 80.7056 15.5512C80.9721 15.4496 81.2155 15.2963 81.4216 15.1004C81.6176 14.9104 81.7732 14.6834 81.8795 14.4329C81.9858 14.1824 82.0405 13.9133 82.0405 13.6415C82.0405 13.3697 81.9858 13.1007 81.8795 12.8502C81.7732 12.5996 81.6176 12.3727 81.4216 12.1827C81.2161 11.9856 80.9729 11.8312 80.7064 11.7286C80.4399 11.626 80.1553 11.5773 79.8695 11.5854L79.877 11.5873Z" fill="#1D1D1B"/>
<path d="M89.3972 21.3086C88.6659 20.6304 88.0853 19.8083 87.6924 18.8948C87.2996 17.9814 87.1032 16.9967 87.1158 16.0037C87.1028 15.0112 87.299 14.0269 87.6919 13.114C88.0848 12.2012 88.6656 11.3798 89.3972 10.7025C90.9194 9.23719 92.7857 8.50452 94.996 8.50452C97.2063 8.50452 99.0713 9.23719 100.591 10.7025C101.323 11.3795 101.904 12.2007 102.298 13.1137C102.691 14.0266 102.887 15.011 102.874 16.0037C102.887 16.9969 102.69 17.9818 102.297 18.8953C101.904 19.8088 101.323 20.6307 100.591 21.3086C99.0701 22.7776 97.2045 23.5122 94.9941 23.5122C92.7838 23.5122 90.9181 22.7776 89.3972 21.3086ZM91.6898 12.6446C91.247 13.0859 90.8987 13.6115 90.6657 14.1896C90.4327 14.7678 90.3199 15.3868 90.3341 16.0093C90.3198 16.6307 90.4325 17.2485 90.6655 17.8256C90.8985 18.4026 91.247 18.9268 91.6898 19.3666C92.1225 19.7992 92.6372 20.1425 93.2044 20.3769C93.7715 20.6112 94.3798 20.7318 94.9941 20.7318C95.6085 20.7318 96.2168 20.6112 96.7839 20.3769C97.351 20.1425 97.8657 19.7992 98.2984 19.3666C98.7419 18.9271 99.0908 18.403 99.3242 17.826C99.5575 17.2489 99.6704 16.6309 99.656 16.0093C99.6703 15.3866 99.5573 14.7675 99.324 14.1893C99.0907 13.611 98.7418 13.0856 98.2984 12.6446C97.8664 12.2108 97.3518 11.8665 96.7846 11.6314C96.2174 11.3964 95.6088 11.2754 94.9941 11.2754C94.3794 11.2754 93.7708 11.3964 93.2036 11.6314C92.6364 11.8665 92.1219 12.2108 91.6898 12.6446Z" fill="#1D1D1B"/>
<path d="M105.769 23.2005V8.80499H112.2C113.636 8.80499 114.825 9.26191 115.766 10.1757C116.224 10.6086 116.585 11.1315 116.828 11.7108C117.07 12.2902 117.188 12.9133 117.174 13.5404C117.179 14.0913 117.087 14.6387 116.901 15.1579C116.754 15.5942 116.538 16.0043 116.26 16.3728C116.036 16.6593 115.785 16.9245 115.512 17.1648C115.315 17.345 115.094 17.4973 114.855 17.6174L114.592 17.7584L117.698 23.208H114.371L111.577 18.1609H108.886V23.2005H105.769ZM114.07 13.5404C114.078 13.2822 114.033 13.025 113.936 12.785C113.84 12.545 113.694 12.3273 113.509 12.1456C113.324 11.9627 113.104 11.819 112.861 11.7233C112.618 11.6276 112.358 11.582 112.097 11.5891H108.886V15.3953H112.093C112.353 15.4034 112.612 15.36 112.854 15.2676C113.096 15.1752 113.318 15.0358 113.505 14.8574C113.687 14.6895 113.832 14.4855 113.929 14.2586C114.026 14.0317 114.074 13.787 114.07 13.5404Z" fill="#1D1D1B"/>
<path d="M118.622 8.80499H130.019V11.5873H125.879V23.2024H122.771V11.5854H118.622V8.80499Z" fill="#1D1D1B"/>
<path d="M137.791 15.9036V18.3724H130.339V15.9036H137.791Z" fill="#1D1D1B"/>
<path d="M150.221 23.2005H140.372V8.80499H143.489V20.4312H150.221V23.2005Z" fill="#1D1D1B"/>
<path d="M152.592 23.2005V8.80499H155.711V23.2005H152.592Z" fill="#1D1D1B"/>
<path d="M169.278 8.80499H172.386V23.2005H169.693L162.548 14.0561V23.2005H159.431V8.80499H162.129L169.274 17.9606L169.278 8.80499Z" fill="#1D1D1B"/>
<path d="M179.226 20.4312H187V23.2005H176.109V8.80499H186.787V11.5873H179.226V14.4679H185.13V17.239H179.226V20.4312Z" fill="#1D1D1B"/>
<path d="M21.7051 14.6237H10.8628V17.3726H21.7051V14.6237Z" fill="#0078FF"/>
<path d="M34.9503 23.4844V22.5718H8.48979L8.48792 21.2029V9.42453H9.87172V21.2029H34.9503V20.2903L37.5103 21.8892L34.9503 23.4844Z" fill="#1D1D1B"/>
<path d="M21.634 11.7078V10.799H10.861V9.42452H21.634V8.51007L24.1959 10.109L21.634 11.7078Z" fill="#1D1D1B"/>
<path d="M16.1319 1.18167e-06C13.2785 -0.00108644 10.4758 0.748644 8.00981 2.1727C5.54383 3.59676 3.50282 5.64418 2.09501 8.10608C0.687197 10.568 -0.0370311 13.3562 -0.00378782 16.1864C0.0294554 19.0166 0.81898 21.7873 2.28424 24.216C3.7495 26.6447 5.83804 28.6444 8.3368 30.0111C10.8356 31.3778 13.6551 32.0625 16.5078 31.9955C19.3604 31.9285 22.1441 31.1121 24.5748 29.6295C27.0055 28.147 28.9963 26.0515 30.3439 23.5567H28.7582C26.8176 26.7515 23.7224 29.0927 20.1028 30.1036C16.4832 31.1145 12.6112 30.7191 9.27516 28.998C5.93909 27.2769 3.3897 24.3593 2.14599 20.8393C0.902275 17.3193 1.05773 13.4615 2.58072 10.0512C4.1037 6.64093 6.87972 3.93453 10.3436 2.48298C13.8076 1.03144 17.699 0.943871 21.2257 2.23811C24.7524 3.53234 27.6493 6.11108 29.3267 9.44936C31.004 12.7876 31.3357 16.6345 30.2542 20.2068H31.6941C32.3453 17.8335 32.4363 15.3433 31.96 12.9295C31.4837 10.5157 30.4528 8.24324 28.9475 6.28867C27.4422 4.3341 25.503 2.74998 23.2804 1.65934C21.0578 0.568702 18.6116 0.000890655 16.1319 1.18167e-06Z" fill="#1D1D1B"/>
<path d="M16.1325 2.38904C13.7613 2.38828 11.4303 2.99693 9.36685 4.15566C7.30337 5.3144 5.57777 6.98368 4.35826 9.00078C3.13874 11.0179 2.46693 13.314 2.40831 15.6653C2.34969 18.0166 2.90625 20.3428 4.02375 22.4172C5.14125 24.4917 6.78155 26.2435 8.78476 27.502C10.788 28.7605 13.0857 29.4827 15.4541 29.5982C17.8224 29.7137 20.1806 29.2186 22.2986 28.1611C24.4166 27.1036 26.2222 25.5198 27.5395 23.5641H26.4904C24.5748 26.1422 21.7476 27.9068 18.5755 28.5042C15.4034 29.1016 12.1208 28.4877 9.38583 26.7855C6.65085 25.0834 4.66557 22.4187 3.82793 19.3257C2.9903 16.2327 3.36222 12.94 4.86914 10.1076C6.37606 7.27514 8.90662 5.11234 11.9535 4.05271C15.0005 2.99307 18.3386 3.11492 21.2988 4.39383C24.2589 5.67273 26.6224 8.01418 27.9153 10.9488C29.2083 13.8834 29.3352 17.1944 28.2707 20.2179H29.1814C29.8512 18.1748 30.0241 16.0033 29.6858 13.8812C29.3476 11.7591 28.5078 9.74648 27.2351 8.00797C25.9624 6.26945 24.293 4.85437 22.3633 3.87843C20.4337 2.90248 18.2985 2.39338 16.1325 2.39275V2.38904Z" fill="#0078FF"/>
</g>
<defs>
<clipPath id="clip0">
<rect width="187" height="32" fill="white"/>
</clipPath>
</defs>
</svg>
