<svg width="183" height="32" viewBox="0 0 183 32" fill="none" xmlns="http://www.w3.org/2000/svg">
<g clip-path="url(#clip0)">
<path d="M55.2605 20.4313V23.2006H44.6044V8.80505H55.0537V11.5855H47.655V14.4679H51.9739V12.9803L55.0903 15.8479L51.9739 18.7156V17.2391H47.655V20.4313H55.2605Z" fill="white"/>
<path d="M63.3638 17.9606L59.916 23.2006H56.4592L61.4313 15.6921L56.8654 8.80505H60.3223L63.3638 13.4422L66.4034 8.80505H69.8511L65.2853 15.6921L70.2574 23.2006H66.8096L63.3638 17.9606Z" fill="white"/>
<path d="M72.285 8.80505H78.2673C79.7313 8.80505 80.9409 9.26877 81.8962 10.1962C82.3628 10.6342 82.7326 11.1675 82.9812 11.7609C83.2297 12.3543 83.3514 12.9943 83.3382 13.6388C83.3517 14.2831 83.2307 14.923 82.9831 15.5166C82.7355 16.1102 82.367 16.6441 81.9017 17.0833C80.944 18.0095 79.7325 18.4726 78.2673 18.4726H75.3393V23.2006H72.285V8.80505ZM78.1685 11.5873H75.3283V15.6921H78.1611C78.4404 15.7007 78.7186 15.6528 78.9794 15.5513C79.2401 15.4497 79.4784 15.2964 79.68 15.1004C79.8718 14.9104 80.0241 14.6835 80.1281 14.433C80.2321 14.1824 80.2857 13.9134 80.2857 13.6416C80.2857 13.3698 80.2321 13.1007 80.1281 12.8502C80.0241 12.5997 79.8718 12.3728 79.68 12.1827C79.4789 11.9856 79.2409 11.8312 78.9801 11.7287C78.7193 11.6261 78.4408 11.5774 78.1611 11.5855L78.1685 11.5873Z" fill="white"/>
<path d="M87.485 21.3086C86.7693 20.6304 86.2011 19.8083 85.8166 18.8948C85.4322 17.9814 85.24 16.9967 85.2524 16.0037C85.2396 15.0112 85.4317 14.0269 85.8161 13.114C86.2006 12.2012 86.769 11.3798 87.485 10.7025C88.9746 9.23719 90.8009 8.50452 92.964 8.50452C95.1271 8.50452 96.9522 9.23719 98.4394 10.7025C99.1558 11.3795 99.7247 12.2007 100.109 13.1137C100.494 14.0266 100.687 15.011 100.674 16.0037C100.686 16.9969 100.494 17.9818 100.109 18.8953C99.7244 19.8088 99.1556 20.6307 98.4394 21.3086C96.9509 22.7776 95.1252 23.5122 92.9622 23.5122C90.7991 23.5122 88.9734 22.7776 87.485 21.3086ZM89.7286 12.6446C89.2952 13.0859 88.9543 13.6115 88.7263 14.1896C88.4983 14.7678 88.388 15.3868 88.4018 16.0093C88.3878 16.6307 88.4981 17.2485 88.7261 17.8256C88.9542 18.4026 89.2952 18.9268 89.7286 19.3666C90.152 19.7992 90.6557 20.1425 91.2107 20.3769C91.7657 20.6112 92.3609 20.7318 92.9622 20.7318C93.5634 20.7318 94.1586 20.6112 94.7136 20.3769C95.2686 20.1425 95.7723 19.7992 96.1958 19.3666C96.6297 18.9271 96.9712 18.403 97.1996 17.826C97.428 17.2489 97.5384 16.6309 97.5244 16.0093C97.5383 15.3866 97.4277 14.7675 97.1994 14.1892C96.9711 13.611 96.6297 13.0856 96.1958 12.6446C95.773 12.2108 95.2694 11.8665 94.7144 11.6314C94.1593 11.3964 93.5637 11.2754 92.9622 11.2754C92.3606 11.2754 91.765 11.3964 91.2099 11.6314C90.6549 11.8665 90.1513 12.2108 89.7286 12.6446Z" fill="white"/>
<path d="M103.507 23.2006V8.80505H109.8C111.205 8.80505 112.369 9.26197 113.29 10.1758C113.738 10.6087 114.092 11.1315 114.329 11.7109C114.566 12.2902 114.682 12.9134 114.668 13.5405C114.673 14.0913 114.582 14.6388 114.401 15.1579C114.257 15.5942 114.045 16.0044 113.773 16.3729C113.554 16.6594 113.309 16.9245 113.041 17.1649C112.848 17.3451 112.632 17.4974 112.399 17.6175L112.141 17.7584L115.18 23.208H111.925L109.191 18.161H106.557V23.2006H103.507ZM111.63 13.5405C111.638 13.2822 111.593 13.0251 111.499 12.7851C111.404 12.5451 111.262 12.3274 111.081 12.1457C110.9 11.9627 110.684 11.819 110.447 11.7234C110.209 11.6277 109.955 11.582 109.699 11.5892H106.557V15.3954H109.696C109.95 15.4035 110.203 15.36 110.44 15.2677C110.677 15.1753 110.894 15.0358 111.077 14.8575C111.255 14.6895 111.397 14.4855 111.492 14.2586C111.587 14.0317 111.634 13.787 111.63 13.5405Z" fill="white"/>
<path d="M116.084 8.80505H127.238V11.5873H123.186V23.2025H120.145V11.5855H116.084V8.80505Z" fill="white"/>
<path d="M134.844 15.9036V18.3724H127.551V15.9036H134.844Z" fill="white"/>
<path d="M147.008 23.2006H137.369V8.80505H140.42V20.4313H147.008V23.2006Z" fill="white"/>
<path d="M149.328 23.2006V8.80505H152.38V23.2006H149.328Z" fill="white"/>
<path d="M165.657 8.80505H168.699V23.2006H166.063L159.071 14.0562V23.2006H156.02V8.80505H158.661L165.653 17.9606L165.657 8.80505Z" fill="white"/>
<path d="M175.393 20.4313H183V23.2006H172.342V8.80505H182.791V11.5873H175.393V14.4679H181.17V17.2391H175.393V20.4313Z" fill="white"/>
<path d="M21.2408 14.6237H10.6304V17.3726H21.2408V14.6237Z" fill="white"/>
<path d="M34.2027 23.4843V22.5717H8.30817L8.30634 21.2028V9.42444H9.66054V21.2028H34.2027V20.2902L36.7079 21.8891L34.2027 23.4843Z" fill="white"/>
<path d="M21.1713 11.7079V10.799H10.6287V9.42458H21.1713V8.51013L23.6784 10.109L21.1713 11.7079Z" fill="white"/>
<path d="M15.7873 1.18167e-06C12.9948 -0.00108644 10.2521 0.748644 7.83886 2.1727C5.42563 3.59676 3.42828 5.64418 2.05058 8.10608C0.672881 10.568 -0.0358551 13.3562 -0.00332296 16.1864C0.0292092 19.0166 0.801845 21.7873 2.23576 24.216C3.66968 26.6447 5.71355 28.6444 8.15886 30.0111C10.6042 31.3778 13.3634 32.0625 16.155 31.9955C18.9467 31.9285 21.6708 31.1121 24.0495 29.6295C26.4283 28.147 28.3764 26.0515 29.6953 23.5567H28.1434C26.2443 26.7515 23.2154 29.0927 19.6732 30.1036C16.131 31.1145 12.3419 30.7191 9.07715 28.998C5.81244 27.2769 3.31758 24.3593 2.10047 20.8393C0.883359 17.3193 1.03549 13.4615 2.5259 10.0512C4.01631 6.64093 6.73295 3.93453 10.1228 2.48298C13.5126 1.03144 17.3208 0.943871 20.7721 2.23811C24.2233 3.53234 27.0583 6.11108 28.6997 9.44936C30.3412 12.7876 30.6658 16.6345 29.6074 20.2068H31.0165C31.6538 17.8335 31.7429 15.3433 31.2767 12.9295C30.8106 10.5157 29.8018 8.24324 28.3287 6.28867C26.8556 4.3341 24.9578 2.74998 22.7828 1.65934C20.6077 0.568702 18.2139 0.000890655 15.7873 1.18167e-06Z" fill="white"/>
<path d="M15.7874 2.38904C13.4669 2.38828 11.1858 2.99693 9.16646 4.15566C7.14712 5.3144 5.45843 6.98368 4.265 9.00078C3.07158 11.0179 2.41414 13.314 2.35677 15.6653C2.2994 18.0166 2.84406 20.3428 3.93765 22.4172C5.03124 24.4917 6.63646 26.2435 8.59682 27.502C10.5572 28.7605 12.8058 29.4827 15.1235 29.5982C17.4412 29.7137 19.7488 29.2186 21.8216 28.1611C23.8943 27.1036 25.6613 25.5198 26.9504 23.5641H25.9237C24.0491 26.1422 21.2823 27.9068 18.1781 28.5042C15.0738 29.1016 11.8615 28.4877 9.18504 26.7855C6.50856 25.0834 4.56574 22.4187 3.74602 19.3257C2.9263 16.2327 3.29027 12.94 4.76496 10.1076C6.23965 7.27514 8.71607 5.11234 11.6978 4.05271C14.6796 2.99307 17.9463 3.11492 20.8431 4.39383C23.74 5.67273 26.0529 8.01418 27.3182 10.9488C28.5835 13.8834 28.7077 17.1944 27.6659 20.2179H28.5571C29.2127 18.1748 29.3818 16.0033 29.0508 13.8812C28.7198 11.7591 27.8979 9.74648 26.6525 8.00797C25.407 6.26945 23.7733 4.85437 21.8849 3.87843C19.9965 2.90248 17.9071 2.39338 15.7874 2.39275V2.38904Z" fill="white"/>
</g>
<defs>
<clipPath id="clip0">
<rect width="183" height="32" fill="white"/>
</clipPath>
</defs>
</svg>
