<svg width="16" height="16" viewBox="0 0 16 16" fill="none" xmlns="http://www.w3.org/2000/svg">
<path fill-rule="evenodd" clip-rule="evenodd" d="M13.3429 9.50954L15.5804 11.7424C16.1399 12.3006 16.1399 13.2575 15.5804 13.8955L15.3467 14.1287L10.9351 9.88669C11.3484 8.99644 12.5924 8.76059 13.3429 9.50954ZM5.14419 5.70569C4.90977 6.04615 4.81738 6.47465 4.95209 6.87797C5.35166 8.5526 7.50929 10.626 9.10754 11.0247C9.55091 11.123 10.0247 11.0092 10.379 10.7393L14.6387 14.8352L14.0621 15.4106C12.4639 17.0056 8.2285 15.2511 4.47262 11.5032C0.71674 7.75516 -0.96142 3.5287 0.556915 1.93381L0.883057 1.60835L5.14419 5.70569ZM5.96364 5.10634C6.96049 4.75846 7.2559 3.43533 6.47043 2.65151L4.23288 0.418659C3.59358 -0.139553 2.63464 -0.139553 2.07525 0.418659L1.59106 0.901834L5.96364 5.10634Z" fill="#E0E0E0"/>
</svg>
