<svg width="183" height="32" fill="none" xmlns="http://www.w3.org/2000/svg"><g clip-path="url(#clip0)" fill="#fff"><path d="M55.26 20.431v2.77H44.605V8.805h10.45v2.78h-7.399v2.883h4.319V12.98l3.116 2.868-3.116 2.868v-1.477h-4.319v3.192h7.605zm8.104-2.471l-3.448 5.24h-3.457l4.972-7.508-4.566-6.887h3.457l3.042 4.637 3.04-4.637h3.447l-4.566 6.887 4.972 7.509H66.81l-3.446-5.24zm8.921-9.155h5.982c1.464 0 2.674.464 3.63 1.391a4.61 4.61 0 011.441 3.443 4.627 4.627 0 01-.355 1.878 4.577 4.577 0 01-1.081 1.566c-.958.927-2.17 1.39-3.635 1.39H75.34V23.2h-3.054V8.805zm5.883 2.782h-2.84v4.105h2.833a2.08 2.08 0 001.519-.592 2.04 2.04 0 00.606-1.458 2.065 2.065 0 00-.606-1.46 2.095 2.095 0 00-1.519-.597l.007.002zm9.317 9.722a7.14 7.14 0 01-1.668-2.414 7.223 7.223 0 01-.565-2.891 7.209 7.209 0 01.564-2.89 7.127 7.127 0 011.669-2.412c1.49-1.465 3.316-2.197 5.479-2.197 2.163 0 3.988.732 5.475 2.197a7.114 7.114 0 011.67 2.412c.385.913.578 1.897.565 2.89a7.222 7.222 0 01-.565 2.891 7.134 7.134 0 01-1.67 2.414c-1.488 1.469-3.314 2.203-5.477 2.203-2.163 0-3.989-.734-5.477-2.203zm2.244-8.664a4.628 4.628 0 00-1.003 1.545 4.679 4.679 0 00-.324 1.82c-.014.62.096 1.238.324 1.816a4.609 4.609 0 002.485 2.55 4.502 4.502 0 003.503 0 4.554 4.554 0 001.482-1.01 4.605 4.605 0 001.004-1.54 4.653 4.653 0 00.324-1.817 4.674 4.674 0 00-.325-1.82 4.622 4.622 0 00-1.003-1.544 4.544 4.544 0 00-1.482-1.014 4.494 4.494 0 00-4.985 1.014zM103.507 23.2V8.806h6.293c1.405 0 2.569.457 3.49 1.37.448.434.802.957 1.039 1.536.237.58.353 1.202.339 1.83a4.783 4.783 0 01-.267 1.617 4.332 4.332 0 01-.628 1.215 5.776 5.776 0 01-.732.792 2.9 2.9 0 01-.642.453l-.258.14 3.039 5.45h-3.255l-2.734-5.047h-2.634v5.04h-3.05zm8.123-9.66a1.892 1.892 0 00-1.931-1.951h-3.142v3.806h3.139a1.884 1.884 0 001.381-.537 1.758 1.758 0 00.553-1.318zm4.454-4.735h11.154v2.782h-4.052v11.616h-3.041V11.585h-4.061V8.804zm18.76 7.099v2.468h-7.293v-2.468h7.293zm12.164 7.296h-9.639V8.806h3.051v11.626h6.588v2.77zm2.32 0V8.806h3.052v14.396h-3.052zm16.329-14.395h3.042v14.396h-2.636l-6.992-9.145v9.145h-3.051V8.805h2.641l6.992 9.156.004-9.156zm9.736 11.626H183v2.77h-10.658V8.805h10.449v2.782h-7.398v2.88h5.777v2.772h-5.777v3.192zM21.24 14.624H10.63v2.749h10.61v-2.75z"/><path d="M34.203 23.484v-.912H8.308l-.002-1.37V9.425h1.355v11.779h24.542v-.913l2.505 1.6-2.505 1.594z"/><path d="M21.171 11.708v-.909H10.63V9.425h10.54V8.51l2.507 1.599-2.507 1.599z"/><path d="M15.787 0A15.624 15.624 0 007.84 2.173a15.898 15.898 0 00-5.79 5.933 16.17 16.17 0 00-2.054 8.08 16.16 16.16 0 002.239 8.03 15.884 15.884 0 005.923 5.795 15.617 15.617 0 007.996 1.985 15.63 15.63 0 007.894-2.366 15.913 15.913 0 005.646-6.073h-1.552a14.492 14.492 0 01-8.47 6.547 14.292 14.292 0 01-10.596-1.106A14.606 14.606 0 012.1 20.839a14.847 14.847 0 01.426-10.788 14.561 14.561 0 017.597-7.568 14.286 14.286 0 0110.65-.245A14.536 14.536 0 0128.7 9.45a14.843 14.843 0 01.907 10.758h1.41a16.22 16.22 0 00.26-7.277 16.108 16.108 0 00-2.948-6.641 15.838 15.838 0 00-5.546-4.63A15.616 15.616 0 0015.787 0z"/><path d="M15.787 2.389c-2.32 0-4.601.608-6.62 1.767A13.516 13.516 0 004.264 9a13.75 13.75 0 00-1.908 6.664 13.763 13.763 0 001.58 6.752 13.542 13.542 0 004.66 5.085 13.28 13.28 0 0013.225.66 13.49 13.49 0 005.128-4.598h-1.026a12.505 12.505 0 01-7.746 4.94 12.385 12.385 0 01-8.993-1.719 12.682 12.682 0 01-5.439-7.46 12.849 12.849 0 011.019-9.217 12.575 12.575 0 016.933-6.055 12.369 12.369 0 019.145.34 12.61 12.61 0 016.475 6.556 12.854 12.854 0 01.348 9.269h.891a13.79 13.79 0 00.494-6.337 13.716 13.716 0 00-2.398-5.873 13.483 13.483 0 00-4.768-4.13 13.286 13.286 0 00-6.098-1.485v-.004z"/></g><defs><clipPath id="clip0"><path fill="#fff" d="M0 0h183v32H0z"/></clipPath></defs></svg>