<svg width="16" height="16" fill="none" xmlns="http://www.w3.org/2000/svg"><g clip-path="url(#clip0)" fill="#E0E0E0"><path d="M13.354.774h-5.51a.47.47 0 00-.471.47v2.887h6.452V1.244a.47.47 0 00-.47-.47zm1.767 4.298H5.943v8.86h9.178a.879.879 0 00.88-.88V5.951a.879.879 0 00-.88-.879zm-6.333 7.796H8.18a.47.47 0 110-.942h.608a.47.47 0 010 .942zm0-1.447H8.18a.47.47 0 010-.942h.608a.47.47 0 010 .942zm0-1.447H8.18a.47.47 0 010-.942h.608a.47.47 0 010 .942zm2.116 2.894h-.61a.47.47 0 110-.942h.61a.47.47 0 010 .942zm0-1.447h-.61a.47.47 0 010-.942h.61a.47.47 0 010 .942zm0-1.447h-.61a.47.47 0 110-.942h.61a.47.47 0 010 .942zm2.115 2.894h-.609a.47.47 0 110-.942h.61a.47.47 0 010 .942zm0-1.447h-.609a.47.47 0 010-.942h.61a.47.47 0 010 .942zm0-1.447h-.609a.47.47 0 110-.942h.61a.47.47 0 110 .942zm0-2.333H8.18a.47.47 0 010-.942h4.84a.47.47 0 110 .942zM4.531 3.777h-2.24a.47.47 0 00-.47.47v10.509c0 .26.21.47.47.47h2.24c.26 0 .47-.21.47-.47V4.248a.47.47 0 00-.47-.471zM0 5.95v7.102c0 .486.394.88.879.88v-8.86A.879.879 0 000 5.951z"/></g><defs><clipPath id="clip0"><path fill="#fff" d="M0 0h16v16H0z"/></clipPath></defs></svg>