<svg width="98" height="98" fill="none" xmlns="http://www.w3.org/2000/svg"><g clip-path="url(#clip0)" fill="#3A82E0"><path d="M49 45.938c7.928 0 14.355-6.428 14.355-14.356S56.928 17.227 49 17.227c-7.928 0-14.355 6.427-14.355 14.355 0 7.928 6.427 14.355 14.355 14.355z"/><path d="M49 0C33.475 0 17.418 11.812 17.418 31.582c0 18.06 28.178 52.46 29.376 53.902a2.878 2.878 0 004.413 0c1.197-1.441 29.375-35.843 29.375-53.902C80.582 14.168 66.414 0 49 0zm0 51.68c-11.08 0-20.098-9.017-20.098-20.098 0-11.08 9.017-20.098 20.098-20.098 11.08 0 20.098 9.017 20.098 20.098 0 11.08-9.017 20.098-20.098 20.098z"/><path d="M68.349 72.316c-5.536 8.014-10.712 14.413-12.726 16.838A8.614 8.614 0 0149 92.258a8.606 8.606 0 01-6.611-3.09c-2.02-2.43-7.199-8.834-12.737-16.853-7.433 2.627-12.234 6.719-12.234 11.33C17.418 91.573 31.558 98 49 98s31.582-6.427 31.582-14.355c0-4.611-4.801-8.703-12.233-11.33z"/></g><defs><clipPath id="clip0"><path fill="#fff" d="M0 0h98v98H0z"/></clipPath></defs></svg>