<svg width="16" height="16" fill="none" xmlns="http://www.w3.org/2000/svg"><path d="M8 7.5a2.344 2.344 0 100-4.688A2.344 2.344 0 008 7.5z" fill="#E0E0E0"/><path d="M8 0C5.465 0 2.844 1.929 2.844 5.156c0 2.949 4.6 8.565 4.796 8.8a.47.47 0 00.72 0c.196-.235 4.796-5.851 4.796-8.8A5.162 5.162 0 008 0zm0 8.438a3.285 3.285 0 01-3.281-3.282A3.285 3.285 0 018 1.875a3.285 3.285 0 013.281 3.281A3.285 3.285 0 018 8.438z" fill="#E0E0E0"/><path d="M11.159 11.807a40.857 40.857 0 01-2.078 2.749 1.406 1.406 0 01-2.16.002 40.883 40.883 0 01-2.08-2.751c-1.213.428-1.997 1.096-1.997 1.85C2.844 14.95 5.152 16 8 16s5.156-1.05 5.156-2.344c0-.753-.784-1.42-1.997-1.85z" fill="#E0E0E0"/></svg>