<svg width="187" height="32" fill="none" xmlns="http://www.w3.org/2000/svg"><g clip-path="url(#clip0)"><path d="M56.468 20.431v2.77H45.58V8.805h10.678v2.78h-7.56v2.883h4.413V12.98l3.184 2.868-3.184 2.867V17.24h-4.413v3.192h7.771zm8.281-2.471l-3.523 5.24h-3.533l5.081-7.508-4.666-6.887h3.533l3.108 4.637 3.106-4.637h3.523l-4.666 6.887 5.081 7.509H68.27l-3.521-5.24zm9.116-9.155h6.113c1.496 0 2.732.464 3.708 1.391.477.438.855.971 1.109 1.565a4.53 4.53 0 01.365 1.878 4.542 4.542 0 01-1.468 3.444c-.979.926-2.217 1.39-3.714 1.39h-2.992V23.2h-3.121V8.805zm6.012 2.782h-2.902v4.105h2.895a2.164 2.164 0 001.552-.592 2.039 2.039 0 00.618-1.458 2.025 2.025 0 00-.618-1.46 2.148 2.148 0 00-1.552-.597l.007.002zm9.52 9.722a7.14 7.14 0 01-1.705-2.414 7.09 7.09 0 01-.576-2.891 7.074 7.074 0 01.576-2.89 7.126 7.126 0 011.705-2.412c1.522-1.465 3.389-2.197 5.599-2.197 2.21 0 4.075.732 5.595 2.197a7.135 7.135 0 011.707 2.412c.393.913.589 1.897.576 2.89a7.082 7.082 0 01-.577 2.891 7.13 7.13 0 01-1.706 2.414c-1.52 1.469-3.386 2.203-5.597 2.203-2.21 0-4.076-.734-5.597-2.203zm2.293-8.664a4.588 4.588 0 00-1.356 3.365 4.57 4.57 0 001.356 3.357 4.658 4.658 0 003.304 1.365 4.688 4.688 0 003.304-1.365 4.564 4.564 0 001.358-3.357 4.582 4.582 0 00-1.358-3.365 4.647 4.647 0 00-3.304-1.37 4.678 4.678 0 00-3.304 1.37zM105.769 23.2V8.806h6.431c1.436 0 2.625.457 3.566 1.37a4.487 4.487 0 011.408 3.365 4.669 4.669 0 01-.273 1.618 4.292 4.292 0 01-.641 1.215 5.887 5.887 0 01-.748.792c-.197.18-.418.332-.657.452l-.263.141 3.106 5.45h-3.327l-2.794-5.047h-2.691v5.04h-3.117zm8.301-9.66a1.861 1.861 0 00-.561-1.394 1.924 1.924 0 00-1.412-.557h-3.211v3.806h3.207a1.963 1.963 0 001.412-.538 1.754 1.754 0 00.565-1.317zm4.552-4.735h11.397v2.782h-4.14v11.615h-3.108V11.585h-4.149v-2.78zm19.169 7.099v2.468h-7.452v-2.468h7.452zm12.43 7.296h-9.849V8.806h3.117v11.626h6.732v2.77zm2.371 0V8.806h3.119v14.396h-3.119zm16.686-14.395h3.108v14.396h-2.693l-7.145-9.145v9.145h-3.117V8.805h2.698l7.145 9.156.004-9.156zm9.948 11.626H187v2.77h-10.891V8.805h10.678v2.782h-7.561v2.88h5.904v2.772h-5.904v3.192z" fill="#1D1D1B"/><path d="M21.705 14.624H10.863v2.749h10.842v-2.75z" fill="#0078FF"/><path d="M34.95 23.484v-.912H8.49l-.002-1.37V9.426h1.384v11.778H34.95v-.913l2.56 1.6-2.56 1.594z" fill="#1D1D1B"/><path d="M21.634 11.708v-.909H10.861V9.425h10.773V8.51l2.562 1.599-2.562 1.599z" fill="#1D1D1B"/><path d="M16.132 0A16.232 16.232 0 008.01 2.173a16.064 16.064 0 00-5.915 5.933 15.899 15.899 0 00-2.099 8.08c.033 2.83.823 5.601 2.288 8.03a16.073 16.073 0 006.053 5.795 16.236 16.236 0 0016.238-.381 16.054 16.054 0 005.769-6.073h-1.586a14.769 14.769 0 01-8.655 6.547 14.891 14.891 0 01-10.828-1.106 14.699 14.699 0 01-7.129-8.159 14.553 14.553 0 01.435-10.788 14.726 14.726 0 017.763-7.568 14.895 14.895 0 0110.882-.245 14.742 14.742 0 018.1 7.211 14.555 14.555 0 01.928 10.758h1.44a15.88 15.88 0 00.266-7.277 15.942 15.942 0 00-3.012-6.641 16.106 16.106 0 00-5.668-4.63A16.243 16.243 0 0016.132 0z" fill="#1D1D1B"/><path d="M16.133 2.389c-2.372 0-4.703.608-6.766 1.767A13.673 13.673 0 004.358 9a13.523 13.523 0 00-.335 13.416 13.657 13.657 0 004.762 5.085 13.818 13.818 0 0013.514.66 13.69 13.69 0 005.24-4.598H26.49a12.81 12.81 0 01-7.914 4.94 12.886 12.886 0 01-9.19-1.719 12.703 12.703 0 01-5.558-7.46 12.603 12.603 0 011.041-9.217 12.769 12.769 0 017.085-6.055 12.895 12.895 0 019.345.34 12.747 12.747 0 016.616 6.556 12.6 12.6 0 01.356 9.269h.91a13.51 13.51 0 00.505-6.337 13.554 13.554 0 00-2.45-5.873 13.696 13.696 0 00-4.873-4.13 13.816 13.816 0 00-6.23-1.485v-.004z" fill="#0078FF"/></g><defs><clipPath id="clip0"><path fill="#fff" d="M0 0h187v32H0z"/></clipPath></defs></svg>