<svg width="12" height="12" fill="none" xmlns="http://www.w3.org/2000/svg"><path fill-rule="evenodd" clip-rule="evenodd" d="M10.007 7.132l1.678 1.675c.42.418.42 1.136 0 1.615l-.036.036L8.304 7.24c.378-.52 1.193-.618 1.703-.109zM3.828 4.325a.986.986 0 00-.114.833c.3 1.256 1.918 2.811 3.117 3.11.314.07.649-.002.909-.182l3.201 3.078-.394.394c-1.2 1.196-4.376-.12-7.193-2.93C.538 5.815-.72 2.646.418 1.45l.206-.206 3.204 3.081zm.836-.584c.59-.35.724-1.218.189-1.752L3.175.314c-.48-.419-1.199-.419-1.619 0l-.224.224L4.664 3.74z" fill="#3A82E0"/></svg>