<svg width="16" height="16" fill="none" xmlns="http://www.w3.org/2000/svg"><path fill-rule="evenodd" clip-rule="evenodd" d="M13.343 9.51l2.237 2.232c.56.559.56 1.515 0 2.153l-.233.234-4.412-4.242c.413-.89 1.657-1.126 2.408-.377zM5.144 5.706c-.234.34-.327.769-.192 1.172.4 1.675 2.557 3.748 4.156 4.147.443.098.917-.016 1.271-.286l4.26 4.096-.577.576c-1.598 1.595-5.833-.16-9.59-3.908C.718 7.755-.96 3.53.558 1.933l.326-.325 4.261 4.098zm.82-.6c.996-.348 1.292-1.67.506-2.454L4.233.419c-.64-.559-1.598-.559-2.158 0l-.484.483 4.373 4.204z" fill="#E0E0E0"/></svg>